<mxfile host="65bd71144e">
    <diagram id="oa0-4GC6HWspwWoAVh9H" name="Page-1">
        <mxGraphModel dx="526" dy="381" grid="1" gridSize="10" guides="1" tooltips="1" connect="1" arrows="1" fold="1" page="1" pageScale="1" pageWidth="850" pageHeight="1100" math="0" shadow="0">
            <root>
                <mxCell id="0"/>
                <mxCell id="1" parent="0"/>
                <mxCell id="9" style="edgeStyle=none;html=1;entryX=0;entryY=0.5;entryDx=0;entryDy=0;" edge="1" parent="1" source="2" target="3">
                    <mxGeometry relative="1" as="geometry"/>
                </mxCell>
                <mxCell id="2" value="UI" style="rounded=1;whiteSpace=wrap;html=1;" vertex="1" parent="1">
                    <mxGeometry x="100" y="190" width="100" height="40" as="geometry"/>
                </mxCell>
                <mxCell id="8" style="edgeStyle=none;html=1;entryX=1;entryY=0.5;entryDx=0;entryDy=0;" edge="1" parent="1" source="3" target="2">
                    <mxGeometry relative="1" as="geometry"/>
                </mxCell>
                <mxCell id="3" value="&lt;span style=&quot;box-sizing: border-box; scrollbar-color: rgba(0, 0, 0, 0.12) transparent; scrollbar-width: thin; vertical-align: baseline; font-weight: 600; color: rgb(8, 8, 8); font-family: &amp;quot;HarmonyOS Sans&amp;quot;, &amp;quot;Segoe UI&amp;quot;, &amp;quot;SF Pro Display&amp;quot;, -apple-system, BlinkMacSystemFont, Roboto, Oxygen, Ubuntu, Cantarell, &amp;quot;Open Sans&amp;quot;, &amp;quot;Helvetica Neue&amp;quot;, sans-serif, &amp;quot;HarmonyOS Sans SC&amp;quot;, &amp;quot;PingFang SC&amp;quot;, &amp;quot;Hiragino Sans GB&amp;quot;, &amp;quot;Microsoft Yahei UI&amp;quot;, &amp;quot;Microsoft Yahei&amp;quot;, &amp;quot;Source Han Sans CN&amp;quot;, sans-serif, &amp;quot;Segoe UI Emoji&amp;quot;, &amp;quot;Segoe UI Symbol&amp;quot;, &amp;quot;Apple Color Emoji&amp;quot;, &amp;quot;Twemoji Mozilla&amp;quot;, &amp;quot;Noto Color Emoji&amp;quot;, &amp;quot;Android Emoji&amp;quot;; font-size: 14px; letter-spacing: 0.28px; text-align: left; background-color: rgb(255, 255, 255);&quot;&gt;Node.js Server&amp;nbsp;&lt;/span&gt;" style="rounded=1;whiteSpace=wrap;html=1;" vertex="1" parent="1">
                    <mxGeometry x="315" y="190" width="130" height="40" as="geometry"/>
                </mxCell>
                <mxCell id="6" value="" style="edgeStyle=none;html=1;" edge="1" parent="1" source="4" target="3">
                    <mxGeometry relative="1" as="geometry"/>
                </mxCell>
                <mxCell id="4" value="&lt;span style=&quot;box-sizing: border-box; scrollbar-color: rgba(0, 0, 0, 0.12) transparent; scrollbar-width: thin; vertical-align: baseline; font-weight: 600; color: rgb(8, 8, 8); font-family: &amp;quot;HarmonyOS Sans&amp;quot;, &amp;quot;Segoe UI&amp;quot;, &amp;quot;SF Pro Display&amp;quot;, -apple-system, BlinkMacSystemFont, Roboto, Oxygen, Ubuntu, Cantarell, &amp;quot;Open Sans&amp;quot;, &amp;quot;Helvetica Neue&amp;quot;, sans-serif, &amp;quot;HarmonyOS Sans SC&amp;quot;, &amp;quot;PingFang SC&amp;quot;, &amp;quot;Hiragino Sans GB&amp;quot;, &amp;quot;Microsoft Yahei UI&amp;quot;, &amp;quot;Microsoft Yahei&amp;quot;, &amp;quot;Source Han Sans CN&amp;quot;, sans-serif, &amp;quot;Segoe UI Emoji&amp;quot;, &amp;quot;Segoe UI Symbol&amp;quot;, &amp;quot;Apple Color Emoji&amp;quot;, &amp;quot;Twemoji Mozilla&amp;quot;, &amp;quot;Noto Color Emoji&amp;quot;, &amp;quot;Android Emoji&amp;quot;; font-size: 14px; letter-spacing: 0.28px; text-align: left; background-color: rgb(255, 255, 255);&quot;&gt;Server Launcher&lt;/span&gt;" style="rounded=1;whiteSpace=wrap;html=1;" vertex="1" parent="1">
                    <mxGeometry x="320" y="100" width="120" height="40" as="geometry"/>
                </mxCell>
                <mxCell id="7" value="start node server" style="text;html=1;align=center;verticalAlign=middle;resizable=0;points=[];autosize=1;strokeColor=none;fillColor=none;" vertex="1" parent="1">
                    <mxGeometry x="390" y="150" width="110" height="30" as="geometry"/>
                </mxCell>
                <mxCell id="10" value="websocket" style="text;html=1;align=center;verticalAlign=middle;resizable=0;points=[];autosize=1;strokeColor=none;fillColor=none;" vertex="1" parent="1">
                    <mxGeometry x="220" y="180" width="80" height="30" as="geometry"/>
                </mxCell>
            </root>
        </mxGraphModel>
    </diagram>
</mxfile>